<svg id="Layer_1" data-name="Layer 1" xmlns="http://www.w3.org/2000/svg" viewBox="0 0 250.75 66.46"><defs><style>.cls-1{fill:#c62128;}.cls-2{font-size:18.33px;}.cls-2,.cls-4{fill:#414142;font-family:Oswald-Regular, Oswald Regular;}.cls-3{fill:#c62129;font-family:Oswald-Bold, Oswald;font-weight:700;}.cls-4{font-size:13px;}</style></defs><title>rutherford-rockets</title><path class="cls-1" d="M131,16.72q-2.63-.31-5.46-.48c-23-1.4-46.74,5-64.33,11.31l.81,12.17c17.86-2.3,41.66-7.52,63.76-19.91q2.72-1.52,5.22-3.08" transform="translate(-13.67 -15.75)"/><polyline class="cls-1" points="48.38 23.97 40.42 24.06 40.14 19.8 47.98 17.89"/><polygon class="cls-1" points="40.14 19.8 39.94 16.75 34.78 18.01 35.18 24.1 40.34 22.84 40.14 19.8"/><path class="cls-1" d="M71.51,16q-.94-.11-2-.17c-8.25-.5-16.77,1.78-23.08,4.06l.29,4.36A63.89,63.89,0,0,0,69.64,17.1q1-.55,1.87-1.11" transform="translate(-13.67 -15.75)"/><polyline class="cls-1" points="32.81 4.13 30.04 5.46 30.14 7 32.96 6.31"/><polyline class="cls-1" points="33.1 8.49 30.25 8.53 30.14 7 32.96 6.31"/><polygon class="cls-1" points="30.14 7 30.07 5.9 28.22 6.36 28.36 8.54 30.22 8.09 30.14 7"/><polyline class="cls-1" points="47.98 17.89 40.14 19.8 39.86 15.53 47.58 11.8 36.73 7.94 45.95 5.7 61.25 7.33"/><path class="cls-1" d="M73.5,46q-.9.56-1.87,1.11a63.89,63.89,0,0,1-22.87,7.14l-.29-4.36c6.31-2.28,14.82-4.56,23.08-4.06q1,.06,2,.17" transform="translate(-13.67 -15.75)"/><polyline class="cls-1" points="35.09 38.48 32.23 38.52 32.13 36.99 34.94 36.3"/><polyline class="cls-1" points="34.8 34.12 32.03 35.46 32.13 36.99 34.94 36.3"/><polygon class="cls-1" points="32.13 36.99 32.2 38.08 30.35 38.53 30.21 36.35 32.06 35.9 32.13 36.99"/><polyline class="cls-1" points="47.98 17.89 40.14 19.8 40.42 24.06 48.38 23.97 38.39 32.91 47.6 30.66 62.21 21.74"/><path class="cls-1" d="M22.79,40.55c-5.26,3.67-10.35,10.56-8.86,16.71,4.12,16.91,56.29,20.52,56.18,20.94-.06.22-14.71-1-31.27-8.94-9.17-4.4-17.63-8.46-17.71-13.88C21,45.86,46.71,40.19,45.48,37,44.65,34.88,31.7,34.33,22.79,40.55Z" transform="translate(-13.67 -15.75)"/><text class="cls-2" transform="translate(65.34 38.81)">RUTHERFORD<tspan class="cls-3" x="90.27" y="0">ROCKET</tspan><tspan x="148.99" y="0">LABS</tspan></text><text class="cls-4" transform="translate(148.62 55.68)">IT’S ROCKET SCIENCE</text></svg>